# Blender 3.3.1
# www.blender.org
mtllib pizzafix.mtl
o Plane.001
v 12.308546 0.000000 2.986428
v 18.236595 0.000000 3.001363
v 15.011881 -0.929870 -4.531562
v 15.354034 -0.998741 -4.806853
v 13.522550 -0.077327 -0.452533
v 17.041821 -0.063309 -0.295487
v 16.328348 -0.342149 -2.182337
v 14.152130 -0.335125 -2.154261
v 15.011881 -0.824529 -4.531562
v 15.354034 -0.869818 -4.806853
v 16.328348 -0.184602 -2.182337
v 14.152130 -0.124592 -2.154261
v 13.522550 0.110667 -0.452533
v 17.041821 0.168156 -0.295487
v 12.261885 -0.015661 2.294286
v 18.287113 -0.012549 2.342358
v 17.892811 -0.022740 1.818248
v 12.659232 -0.027729 1.752323
v 12.475480 0.120652 1.752323
v 11.804419 0.331450 2.294286
v 12.015896 0.185151 3.128313
v 18.304283 0.081501 3.206127
v 18.495672 0.208934 2.427777
v 18.014744 0.116914 1.840788
v 17.956459 0.366861 1.708982
v 17.138319 0.275026 -0.381836
v 16.478657 -0.113125 -2.276273
v 15.371933 -0.709658 -4.901077
v 14.896312 -0.665145 -4.626241
v 13.975101 -0.044563 -2.263287
v 13.386261 0.234521 -0.564187
v 12.471800 0.283319 1.689972
v 12.069094 0.374909 2.234039
v 12.202916 0.424564 3.032012
v 18.470827 0.381908 3.093788
v 18.508135 0.378266 2.294545
v 12.263095 0.325916 3.181071
v 18.191252 0.377040 3.166113
v 15.227398 -0.029740 -2.709024
v 16.429794 0.531601 0.873614
v 13.708982 0.299738 0.897347
v 15.850245 0.406006 -0.870934
v 15.216481 0.435209 1.177598
v 15.977076 0.644322 -0.113083
v 15.372752 0.709360 2.623250
v 15.214129 0.325090 1.699477
v 15.773708 0.421266 1.037990
v 16.810780 0.335042 0.198541
v 15.977076 0.517571 -0.113083
v 15.936490 0.372484 1.208741
v 16.722256 0.397572 1.033645
v 16.266397 0.380248 1.172770
v 13.679908 0.248127 -0.589185
v 14.202621 0.090418 -1.612880
v 14.699297 0.323265 -0.219006
v 15.443501 0.422664 -0.814532
v 14.224172 0.292268 -0.074927
v 15.174070 0.236938 -1.598104
v 15.151139 0.435301 -0.374116
v 14.888331 0.125795 -1.706236
v 15.197481 -0.087155 -2.882263
v 15.237592 -0.077692 -2.863622
v 16.237871 -0.242910 -2.847341
v 14.570649 -0.445759 -3.790900
v 16.236509 -0.145589 -2.877360
v 15.370571 -0.612337 -4.931096
v 14.894950 -0.567823 -4.656260
v 15.196119 0.010167 -2.912282
v 15.236230 0.019629 -2.893641
v 14.569287 -0.348438 -3.820919
v 14.919347 0.226493 -1.700856
v 14.566265 0.388456 -0.656619
v 15.165415 0.536022 -0.766290
v 15.205086 0.337636 -1.592724
v 15.474517 0.523362 -0.809152
v 13.710923 0.348825 -0.583805
v 15.182155 0.535999 -0.368736
v 14.233636 0.191116 -1.607500
v 14.730312 0.423963 -0.213626
v 14.255187 0.392966 -0.069548
v 16.722256 0.524323 1.033645
v 15.773708 0.548017 1.037990
v 16.810780 0.461793 0.198541
v 15.936490 0.499235 1.208741
v 16.266397 0.506998 1.172770
vn 0.0016 -0.9998 0.0209
vn -0.0021 -0.9890 0.1479
vn -0.0000 -0.9701 0.2427
vn 0.0002 -0.9998 0.0209
vn 0.0005 -0.9998 0.0209
vn 0.7069 -0.7045 0.0627
vn -0.0113 -0.7961 0.6050
vn -0.5750 -0.8177 0.0273
vn -0.5597 -0.7243 -0.4027
vn -0.8221 -0.4491 -0.3501
vn -0.9379 -0.0000 -0.3470
vn -0.9404 -0.0000 -0.3401
vn -0.6269 -0.0000 -0.7791
vn 0.9375 -0.0000 -0.3480
vn 0.9354 -0.0000 -0.3537
vn 0.8852 -0.2677 -0.3805
vn 0.7050 -0.4927 -0.5100
vn 0.9467 -0.3014 0.1136
vn 0.7273 -0.3082 -0.6133
vn 0.8740 -0.3182 -0.3673
vn 0.5642 -0.8245 -0.0433
vn 0.7457 -0.6522 -0.1363
vn -0.5074 -0.5481 -0.6649
vn -0.6257 -0.7799 -0.0178
vn -0.5166 -0.8544 -0.0559
vn -0.7566 -0.5672 -0.3254
vn -0.6128 0.3565 -0.7052
vn -0.4856 0.8605 0.1537
vn -0.0053 -0.0276 0.9996
vn -0.4863 0.6254 0.6102
vn 0.2407 0.2201 0.9453
vn -0.5011 -0.2615 -0.8249
vn 0.9280 -0.2722 -0.2546
vn 0.0075 0.9724 -0.2331
vn 0.0332 0.2950 0.9549
vn -0.1160 0.9486 -0.2944
vn -0.0748 0.9813 -0.1775
vn -0.0610 0.9813 -0.1823
vn -0.8360 0.2826 -0.4704
vn -0.0366 0.9987 -0.0365
vn -0.0801 0.9955 -0.0501
vn -0.2374 0.9714 0.0101
vn 0.3555 -0.1587 0.9211
vn -0.9847 -0.0000 -0.1740
vn 0.1595 0.9471 -0.2786
vn 0.1955 0.9451 -0.2617
vn 0.1816 0.9784 -0.0982
vn 0.0620 0.9958 -0.0680
vn -0.0953 0.9944 -0.0459
vn -0.0036 0.8332 0.5529
vn -0.0059 0.8390 0.5441
vn 0.0575 0.9563 0.2867
vn 0.0933 0.9899 -0.1072
vn 0.1051 0.9945 0.0004
vn -0.0729 0.9733 -0.2178
vn -0.0127 0.9240 -0.3822
vn 0.9944 -0.0000 0.1054
vn 0.0761 0.9756 0.2062
vn -0.0452 0.9975 0.0534
vn -0.0846 0.9501 -0.3003
vn -0.0154 0.9972 0.0736
vn 0.2919 -0.0000 0.9564
vn -0.1296 0.9915 -0.0131
vn 0.3501 -0.0000 -0.9367
vn -0.7238 -0.0000 0.6900
vn 0.7975 -0.2743 0.5373
vn -0.0491 0.9982 -0.0337
vn 0.0407 0.9992 -0.0017
vn -0.2730 0.9324 -0.2369
vn -0.1391 0.0955 -0.9857
vn 0.2957 -0.1416 0.9447
vn -0.6838 0.1728 0.7089
vn 0.3756 -0.0663 -0.9244
vn 0.1608 0.9456 -0.2827
vn -0.8405 0.1489 0.5210
vn -0.4565 0.2564 0.8520
vn -0.9353 -0.1162 -0.3341
vn 0.9248 -0.1003 -0.3671
vn 0.0479 0.9946 0.0917
vn 0.2080 0.9780 0.0163
vn 0.1084 -0.0000 0.9941
vt 0.000000 0.000000
vt 1.000000 0.000000
vt 0.000000 1.000000
vt 1.000000 1.000000
vt 0.000000 0.449076
vt 1.000000 0.414484
vt 1.000000 0.661998
vt 0.000000 0.681967
vt 0.000000 0.000000
vt 0.000000 0.000000
vt 0.000000 0.000000
vt 0.000000 0.000000
vt 0.000000 0.000000
vt 0.000000 0.000000
vt 0.000000 0.090081
vt 1.000000 0.083142
vt 1.000000 0.148742
vt 0.000000 0.161156
vt 0.000000 0.000000
vt 0.000000 0.000000
vt 0.000000 0.000000
vt 0.000000 0.000000
vt 0.000000 0.000000
vt 0.000000 0.000000
vt 0.000000 0.000000
vt 0.000000 0.000000
vt 0.000000 0.000000
vt 0.000000 0.000000
vt 0.000000 0.000000
vt 0.000000 0.000000
vt 0.000000 0.000000
vt 0.000000 0.000000
vt 0.000000 0.000000
vt 0.000000 0.000000
vt 0.000000 0.000000
vt 0.000000 0.000000
vt 0.000000 0.000000
vt 0.000000 0.000000
vt 0.000000 0.000000
vt 0.000000 0.000000
vt 0.000000 0.000000
vt 0.000000 0.000000
vt 0.000000 0.000000
vt 0.000000 0.000000
vt 0.000000 0.000000
vt 0.000000 0.000000
vt 0.000000 0.000000
vt 0.000000 0.000000
vt 0.000000 0.000000
vt 0.000000 0.000000
vt 0.000000 0.000000
vt 0.000000 0.000000
vt 0.000000 0.000000
vt 0.000000 0.000000
vt 0.000000 0.000000
vt 0.000000 0.000000
vt 0.000000 0.000000
vt 0.000000 0.000000
vt 0.000000 0.000000
vt 0.000000 0.000000
vt 0.000000 0.000000
vt 0.000000 0.000000
vt 0.000000 0.000000
vt 0.000000 0.000000
vt 0.000000 0.000000
vt 0.000000 0.000000
vt 0.000000 0.000000
vt 0.000000 0.000000
vt 0.000000 0.000000
vt 0.000000 0.000000
vt 0.000000 0.000000
vt 0.000000 0.000000
vt 0.000000 0.000000
vt 0.000000 0.000000
vt 0.000000 0.000000
vt 0.000000 0.000000
vt 0.000000 0.000000
vt 0.000000 0.000000
vt 0.000000 0.000000
vt 0.000000 0.000000
vt 0.000000 0.000000
vt 0.000000 0.000000
vt 0.000000 0.000000
vt 0.000000 0.000000
vt 0.000000 0.000000
s 0
usemtl Material.009
f 18/18/1 5/5/1 6/6/1 17/17/1
f 5/5/2 8/8/2 7/7/2 6/6/2
f 8/8/3 3/3/3 4/4/3 7/7/3
f 13/13/10 5/5/10 18/18/10 19/19/10
f 13/13/11 12/12/11 8/8/11 5/5/11
f 8/8/12 12/12/12 9/9/12 3/3/12
f 10/10/13 4/4/13 3/3/13 9/9/13
f 11/11/14 7/7/14 4/4/14 10/10/14
f 14/14/15 6/6/15 7/7/15 11/11/15
f 24/24/16 17/17/16 6/6/16 14/14/16
f 26/26/20 25/25/20 24/24/20 14/14/20
f 27/27/21 26/26/21 14/14/21 11/11/21
f 28/28/22 63/63/22 27/27/22 11/11/22 10/10/22
f 29/29/23 28/28/23 10/10/23 9/9/23
f 12/12/24 30/30/24 64/64/24 29/29/24 9/9/24
f 13/13/25 31/31/25 30/30/25 12/12/25
f 19/19/26 32/32/26 31/31/26 13/13/26
f 42/42/34 39/39/34 58/58/34 56/56/34
f 30/30/36 39/39/36 61/61/36 64/64/36
f 39/39/37 30/30/37 54/54/37 60/60/37
f 30/30/38 31/31/38 53/53/38 54/54/38
f 31/31/40 32/32/40 41/41/40
f 41/41/41 43/43/41 55/55/41 57/57/41
f 43/43/42 59/59/42 55/55/42
f 39/39/45 42/42/45 27/27/45
f 27/27/46 42/42/46 26/26/46
f 42/42/47 49/49/47 48/48/47 26/26/47
f 26/26/48 48/48/48 51/51/48 25/25/48
f 43/43/58 46/46/58 50/50/58 47/47/58
f 32/32/59 46/46/59 43/43/59 41/41/59
f 50/50/61 46/46/61 25/25/61 51/51/61 52/52/61
f 47/47/63 49/49/63 42/42/63 43/43/63
f 53/53/67 31/31/67 41/41/67 57/57/67
f 56/56/68 59/59/68 43/43/68 42/42/68
f 60/60/69 58/58/69 39/39/69
f 62/62/74 39/39/74 27/27/74 63/63/74
f 61/61/60 39/39/60 62/62/60
usemtl Material.010
f 1/1/4 15/15/4 16/16/4 2/2/4
f 15/15/5 18/18/5 17/17/5 16/16/5
f 16/16/6 23/23/6 22/22/6 2/2/6
f 22/22/7 21/21/7 1/1/7 2/2/7
f 21/21/8 20/20/8 15/15/8 1/1/8
f 20/20/9 19/19/9 18/18/9 15/15/9
f 17/17/17 24/24/17 23/23/17 16/16/17
f 23/23/18 36/36/18 35/35/18 22/22/18
f 25/25/19 36/36/19 23/23/19 24/24/19
f 20/20/27 33/33/27 32/32/27 19/19/27
f 21/21/28 34/34/28 33/33/28 20/20/28
f 22/22/29 38/38/29 37/37/29 21/21/29
f 34/34/30 21/21/30 37/37/30
f 35/35/31 38/38/31 22/22/31
f 34/34/49 45/45/49 33/33/49
f 37/37/50 45/45/50 34/34/50
f 38/38/51 45/45/51 37/37/51
f 38/38/52 35/35/52 45/45/52
f 36/36/53 25/25/53 45/45/53
f 36/36/54 45/45/54 35/35/54
f 33/33/55 45/45/55 32/32/55
f 45/45/56 25/25/56 46/46/56 32/32/56
usemtl Material.011
f 29/29/32 67/67/32 66/66/32 28/28/32
f 56/56/33 58/58/33 74/74/33 75/75/33
f 63/63/35 65/65/35 69/69/35 62/62/35
f 53/53/39 76/76/39 78/78/39 54/54/39
f 59/59/43 77/77/43 79/79/43 55/55/43
f 49/49/44 47/47/44 82/82/44 44/44/44
f 48/48/57 83/83/57 81/81/57 51/51/57
f 67/67/60 68/68/60 69/69/60 66/66/60
f 51/51/62 81/81/62 85/85/62 52/52/62
f 48/48/64 49/49/64 44/44/64 83/83/64
f 47/47/65 50/50/65 84/84/65 82/82/65
f 59/59/66 56/56/66 75/75/66 77/77/66
f 60/60/70 54/54/70 78/78/70 71/71/70
f 55/55/71 79/79/71 80/80/71 57/57/71
f 57/57/72 80/80/72 76/76/72 53/53/72
f 58/58/73 60/60/73 71/71/73 74/74/73
f 61/61/75 68/68/75 70/70/75 64/64/75
f 66/66/74 69/69/74 65/65/74
f 68/68/36 67/67/36 70/70/36
f 62/62/76 69/69/76 68/68/76 61/61/76
f 64/64/77 70/70/77 67/67/77 29/29/77
f 28/28/78 66/66/78 65/65/78 63/63/78
f 72/72/69 73/73/69 74/74/69 71/71/69
f 72/72/67 76/76/67 80/80/67
f 73/73/68 77/77/68 75/75/68
f 77/77/42 73/73/42 72/72/42 79/79/42
f 71/71/37 78/78/37 72/72/37
f 75/75/34 74/74/34 73/73/34
f 79/79/41 72/72/41 80/80/41
f 76/76/38 72/72/38 78/78/38
f 40/40/79 44/44/79 82/82/79
f 40/40/61 84/84/61 85/85/61 81/81/61
f 83/83/80 44/44/80 40/40/80
f 82/82/58 84/84/58 40/40/58
f 83/83/48 40/40/48 81/81/48
f 52/52/81 85/85/81 84/84/81 50/50/81
l 28 11
